<svg width="9" height="17" viewBox="0 0 9 17" version="1.1" xmlns="http://www.w3.org/2000/svg" xmlns:xlink="http://www.w3.org/1999/xlink">
<title>&#239;&#130;&#154;</title>
<desc>Created using Figma</desc>
<g id="Canvas" transform="translate(-2707 -2383)">
<rect x="2707" y="2383" width="9" height="17" fill="#E5E5E5"/>
<clipPath id="clip-0" clip-rule="evenodd">
<path d="M 2061 -503L 3501 -503L 3501 2449L 2061 2449L 2061 -503Z" fill="#FFFFFF"/>
</clipPath>
<g id="&#208;&#158;&#208;&#177;&#209;&#138;&#209;&#143;&#208;&#178;&#208;&#187;&#208;&#181;&#208;&#189;&#208;&#184;&#208;&#181;" clip-path="url(#clip-0)">
<path d="M 2061 -503L 3501 -503L 3501 2449L 2061 2449L 2061 -503Z" fill="#FFFFFF"/>
<g id="Rectangle 14">
<mask id="mask0_outline_ins">
<use xlink:href="#path0_fill" fill="white" transform="translate(2061 -503)"/>
</mask>
<g mask="url(#mask0_outline_ins)">
<use xlink:href="#path1_stroke_2x" transform="translate(2061 -503)" fill="#FCD798"/>
</g>
</g>
<g id="footer">
<g id="Social">
<g id="&#239;&#130;&#154;">
<use xlink:href="#path2_fill" transform="translate(2707 2383.74)" fill="#AAB2BD"/>
</g>
</g>
</g>
</g>
</g>
<defs>
<path id="path0_fill" d="M 0 0L 1440 0L 1440 2952L 0 2952L 0 0Z"/>
<path id="path1_stroke_2x" d="M 0 0L 0 -10L -10 -10L -10 0L 0 0ZM 1440 0L 1450 0L 1450 -10L 1440 -10L 1440 0ZM 1440 2952L 1440 2962L 1450 2962L 1450 2952L 1440 2952ZM 0 2952L -10 2952L -10 2962L 0 2962L 0 2952ZM 0 10L 1440 10L 1440 -10L 0 -10L 0 10ZM 1430 0L 1430 2952L 1450 2952L 1450 0L 1430 0ZM 1440 2942L 0 2942L 0 2962L 1440 2962L 1440 2942ZM 10 2952L 10 0L -10 0L -10 2952L 10 2952Z"/>
<path id="path2_fill" d="M 8.12327 0.112908C 7.86941 0.0752717 6.99503 0 5.97963 0C 3.85479 0 2.39749 1.29844 2.39749 3.6789L 2.39749 5.73006L 0 5.73006L 0 8.51511L 2.39749 8.51511L 2.39749 15.6565L 5.27448 15.6565L 5.27448 8.51511L 7.66257 8.51511L 8.02925 5.73006L 5.27448 5.73006L 5.27448 3.95176C 5.27448 3.152 5.49073 2.59687 6.64716 2.59687L 8.12327 2.59687L 8.12327 0.112908Z"/>
</defs>
</svg>
