<svg width="15" height="16" viewBox="0 0 15 16" version="1.1" xmlns="http://www.w3.org/2000/svg" xmlns:xlink="http://www.w3.org/1999/xlink">
<title>&#239;&#133;&#173;</title>
<desc>Created using Figma</desc>
<g id="Canvas" transform="translate(-2818 -2384)">
<rect x="2818" y="2384" width="15" height="16" fill="#E5E5E5"/>
<clipPath id="clip-0" clip-rule="evenodd">
<path d="M 2061 -503L 3501 -503L 3501 2449L 2061 2449L 2061 -503Z" fill="#FFFFFF"/>
</clipPath>
<g id="&#208;&#158;&#208;&#177;&#209;&#138;&#209;&#143;&#208;&#178;&#208;&#187;&#208;&#181;&#208;&#189;&#208;&#184;&#208;&#181;" clip-path="url(#clip-0)">
<path d="M 2061 -503L 3501 -503L 3501 2449L 2061 2449L 2061 -503Z" fill="#FFFFFF"/>
<g id="Rectangle 14">
<mask id="mask0_outline_ins">
<use xlink:href="#path0_fill" fill="white" transform="translate(2061 -503)"/>
</mask>
<g mask="url(#mask0_outline_ins)">
<use xlink:href="#path1_stroke_2x" transform="translate(2061 -503)" fill="#FCD798"/>
</g>
</g>
<g id="footer">
<g id="Social">
<g id="&#239;&#133;&#173;">
<use xlink:href="#path2_fill" transform="translate(2818 2384.94)" fill="#AAB2BD"/>
</g>
</g>
</g>
</g>
</g>
<defs>
<path id="path0_fill" d="M 0 0L 1440 0L 1440 2952L 0 2952L 0 0Z"/>
<path id="path1_stroke_2x" d="M 0 0L 0 -10L -10 -10L -10 0L 0 0ZM 1440 0L 1450 0L 1450 -10L 1440 -10L 1440 0ZM 1440 2952L 1440 2962L 1450 2962L 1450 2952L 1440 2952ZM 0 2952L -10 2952L -10 2962L 0 2962L 0 2952ZM 0 10L 1440 10L 1440 -10L 0 -10L 0 10ZM 1430 0L 1430 2952L 1450 2952L 1450 0L 1430 0ZM 1440 2942L 0 2942L 0 2962L 1440 2962L 1440 2942ZM 10 2952L 10 0L -10 0L -10 2952L 10 2952Z"/>
<path id="path2_fill" d="M 9.62816 7.22667C 9.62816 8.55333 8.54694 9.63536 7.22127 9.63536C 5.8956 9.63536 4.81437 8.55333 4.81437 7.22667C 4.81437 5.90001 5.8956 4.81798 7.22127 4.81798C 8.54694 4.81798 9.62816 5.90001 9.62816 7.22667ZM 10.9256 7.22667C 10.9256 5.17552 9.27089 3.51954 7.22127 3.51954C 5.17165 3.51954 3.51691 5.17552 3.51691 7.22667C 3.51691 9.27782 5.17165 10.9338 7.22127 10.9338C 9.27089 10.9338 10.9256 9.27782 10.9256 7.22667ZM 11.941 3.369C 11.941 2.88914 11.5556 2.50337 11.0761 2.50337C 10.5966 2.50337 10.2111 2.88914 10.2111 3.369C 10.2111 3.84885 10.5966 4.23462 11.0761 4.23462C 11.5556 4.23462 11.941 3.84885 11.941 3.369ZM 7.22127 1.29902C 8.27429 1.29902 10.5307 1.21434 11.4803 1.5907C 11.8094 1.72243 12.0539 1.88238 12.3077 2.13642C 12.5616 2.39046 12.7214 2.6351 12.853 2.96441C 13.2291 3.91472 13.1445 6.17287 13.1445 7.22667C 13.1445 8.28047 13.2291 10.5386 12.853 11.4889C 12.7214 11.8182 12.5616 12.0629 12.3077 12.3169C 12.0539 12.571 11.8094 12.7309 11.4803 12.8626C 10.5307 13.239 8.27429 13.1543 7.22127 13.1543C 6.16825 13.1543 3.91179 13.239 2.9622 12.8626C 2.63313 12.7309 2.38868 12.571 2.13483 12.3169C 1.88097 12.0629 1.72114 11.8182 1.58951 11.4889C 1.21344 10.5386 1.29805 8.28047 1.29805 7.22667C 1.29805 6.17287 1.21344 3.91472 1.58951 2.96441C 1.72114 2.6351 1.88097 2.39046 2.13483 2.13642C 2.38868 1.88238 2.63313 1.72243 2.9622 1.5907C 3.91179 1.21434 6.16825 1.29902 7.22127 1.29902ZM 14.442 7.22667C 14.442 6.22932 14.4514 5.24138 14.3949 4.24403C 14.3385 3.08673 14.0753 2.06115 13.2291 1.21434C 12.3829 0.367537 11.3581 0.104087 10.2017 0.0476329C 9.20508 -0.00882091 8.21787 0.000588062 7.22127 0.000588062C 6.22466 0.000588062 5.23746 -0.00882091 4.24086 0.0476329C 3.08442 0.104087 2.05961 0.367537 1.21344 1.21434C 0.367263 2.06115 0.104009 3.08673 0.0475973 4.24403C -0.00881431 5.24138 0.000587621 6.22932 0.000587621 7.22667C 0.000587621 8.22402 -0.00881431 9.21196 0.0475973 10.2093C 0.104009 11.3666 0.367263 12.3922 1.21344 13.239C 2.05961 14.0858 3.08442 14.3493 4.24086 14.4057C 5.23746 14.4622 6.22466 14.4528 7.22127 14.4528C 8.21787 14.4528 9.20508 14.4622 10.2017 14.4057C 11.3581 14.3493 12.3829 14.0858 13.2291 13.239C 14.0753 12.3922 14.3385 11.3666 14.3949 10.2093C 14.4514 9.21196 14.442 8.22402 14.442 7.22667Z"/>
</defs>
</svg>
