<svg width="17" height="13" viewBox="0 0 17 13" version="1.1" xmlns="http://www.w3.org/2000/svg" xmlns:xlink="http://www.w3.org/1999/xlink">
<title>&#239;&#133;&#170;</title>
<desc>Created using Figma</desc>
<g id="Canvas" transform="translate(-2854 -2386)">
<rect x="2854" y="2386" width="17" height="13" fill="#E5E5E5"/>
<clipPath id="clip-0" clip-rule="evenodd">
<path d="M 2061 -503L 3501 -503L 3501 2449L 2061 2449L 2061 -503Z" fill="#FFFFFF"/>
</clipPath>
<g id="&#208;&#158;&#208;&#177;&#209;&#138;&#209;&#143;&#208;&#178;&#208;&#187;&#208;&#181;&#208;&#189;&#208;&#184;&#208;&#181;" clip-path="url(#clip-0)">
<path d="M 2061 -503L 3501 -503L 3501 2449L 2061 2449L 2061 -503Z" fill="#FFFFFF"/>
<g id="Rectangle 14">
<mask id="mask0_outline_ins">
<use xlink:href="#path0_fill" fill="white" transform="translate(2061 -503)"/>
</mask>
<g mask="url(#mask0_outline_ins)">
<use xlink:href="#path1_stroke_2x" transform="translate(2061 -503)" fill="#FCD798"/>
</g>
</g>
<g id="footer">
<g id="Social">
<g id="&#239;&#133;&#170;">
<use xlink:href="#path2_fill" transform="translate(2854 2386.24)" fill="#AAB2BD"/>
</g>
</g>
</g>
</g>
</g>
<defs>
<path id="path0_fill" d="M 0 0L 1440 0L 1440 2952L 0 2952L 0 0Z"/>
<path id="path1_stroke_2x" d="M 0 0L 0 -10L -10 -10L -10 0L 0 0ZM 1440 0L 1450 0L 1450 -10L 1440 -10L 1440 0ZM 1440 2952L 1440 2962L 1450 2962L 1450 2952L 1440 2952ZM 0 2952L -10 2952L -10 2962L 0 2962L 0 2952ZM 0 10L 1440 10L 1440 -10L 0 -10L 0 10ZM 1430 0L 1430 2952L 1450 2952L 1450 0L 1430 0ZM 1440 2942L 0 2942L 0 2962L 1440 2962L 1440 2942ZM 10 2952L 10 0L -10 0L -10 2952L 10 2952Z"/>
<path id="path2_fill" d="M 6.68486 8.11052L 6.68486 3.37782L 11.2354 5.75828L 6.68486 8.11052ZM 8.42421 0C 4.87969 0 2.5292 0.169361 2.5292 0.169361C 2.20014 0.206997 1.47619 0.206997 0.836857 0.884442C 0.836857 0.884442 0.319751 1.39253 0.16932 2.55924C -0.00931666 3.92354 8.52784e-05 5.28784 8.52784e-05 5.28784L 8.52784e-05 6.56745C 8.52784e-05 6.56745 -0.00931666 7.93175 0.16932 9.29605C 0.319751 10.4534 0.836857 10.9708 0.836857 10.9708C 1.47619 11.6389 2.32236 11.6201 2.69844 11.6859C 2.69844 11.6859 4.04291 11.8177 8.42421 11.8553C 11.9687 11.8553 14.3192 11.6765 14.3192 11.6765C 14.6483 11.6389 15.3722 11.6389 16.0116 10.9708C 16.0116 10.9708 16.5287 10.4534 16.6791 9.29605C 16.8577 7.93175 16.8483 6.56745 16.8483 6.56745L 16.8483 5.28784C 16.8483 5.28784 16.8577 3.92354 16.6791 2.55924C 16.5287 1.39253 16.0116 0.884442 16.0116 0.884442C 15.3722 0.206997 14.6483 0.206997 14.3192 0.169361C 14.3192 0.169361 11.9687 0 8.42421 0Z"/>
</defs>
</svg>
